<!--
~ SPDX-FileCopyrightText: 2022-present Open Networking Foundation <info@opennetworking.org>
~
~ SPDX-License-Identifier: Apache-2.0
-->
<svg width="8" height="10" viewBox="0 0 8 10" fill="none" xmlns="http://www.w3.org/2000/svg">
<path d="M7.00024 -6.10352e-05H3.41524C3.15024 -6.10352e-05 2.89524 0.104939 2.70524 0.294939L0.300244 2.70994C0.115244 2.89494 0.000244141 3.14994 0.000244141 3.40994V8.99994C0.000244141 9.54994 0.450244 9.99994 1.00024 9.99994H7.00024C7.55024 9.99994 8.00024 9.54994 8.00024 8.99994V0.999939C8.00024 0.449939 7.55024 -6.10352e-05 7.00024 -6.10352e-05ZM3.50024 2.99994C3.22524 2.99994 3.00024 2.77494 3.00024 2.49994V1.49994C3.00024 1.22494 3.22524 0.999939 3.50024 0.999939C3.77524 0.999939 4.00024 1.22494 4.00024 1.49994V2.49994C4.00024 2.77494 3.77524 2.99994 3.50024 2.99994ZM5.00024 2.99994C4.72524 2.99994 4.50024 2.77494 4.50024 2.49994V1.49994C4.50024 1.22494 4.72524 0.999939 5.00024 0.999939C5.27524 0.999939 5.50024 1.22494 5.50024 1.49994V2.49994C5.50024 2.77494 5.27524 2.99994 5.00024 2.99994ZM6.50024 2.99994C6.22524 2.99994 6.00024 2.77494 6.00024 2.49994V1.49994C6.00024 1.22494 6.22524 0.999939 6.50024 0.999939C6.77524 0.999939 7.00024 1.22494 7.00024 1.49994V2.49994C7.00024 2.77494 6.77524 2.99994 6.50024 2.99994Z" fill="#0063F7"/>
</svg>
