<!--
~ SPDX-FileCopyrightText: 2022-present Open Networking Foundation <info@opennetworking.org>
~
~ SPDX-License-Identifier: Apache-2.0
-->
<svg width="12" height="12" viewBox="0 0 12 12" fill="none" xmlns="http://www.w3.org/2000/svg">
<path d="M5.00842 3.49167C4.78092 3.71917 4.78092 4.08083 5.00842 4.30833L6.11675 5.41667H0.750081C0.429248 5.41667 0.166748 5.67917 0.166748 6C0.166748 6.32083 0.429248 6.58333 0.750081 6.58333H6.11675L5.00842 7.69167C4.78092 7.91917 4.78092 8.28083 5.00842 8.50833C5.23592 8.73583 5.59758 8.73583 5.82508 8.50833L7.91925 6.41417C8.14675 6.18667 8.14675 5.81917 7.91925 5.59167L5.82508 3.49167C5.59758 3.26417 5.23592 3.26417 5.00842 3.49167ZM10.6667 10.0833H6.58342C6.26258 10.0833 6.00008 10.3458 6.00008 10.6667C6.00008 10.9875 6.26258 11.25 6.58342 11.25H10.6667C11.3084 11.25 11.8334 10.725 11.8334 10.0833V1.91667C11.8334 1.275 11.3084 0.75 10.6667 0.75H6.58342C6.26258 0.75 6.00008 1.0125 6.00008 1.33333C6.00008 1.65417 6.26258 1.91667 6.58342 1.91667H10.6667V10.0833Z" fill="#0063F7"/>
</svg>
