<svg width="16" height="20" viewBox="0 0 16 20" fill="none" xmlns="http://www.w3.org/2000/svg">
<path d="M8.00054 20C9.10054 20 10.0005 19.1 10.0005 18H6.00054C6.00054 19.1 6.89054 20 8.00054 20ZM14.0005 14V9C14.0005 5.93 12.3605 3.36 9.50054 2.68V2C9.50054 1.17 8.83054 0.5 8.00054 0.5C7.17054 0.5 6.50054 1.17 6.50054 2V2.68C3.63054 3.36 2.00054 5.92 2.00054 9V14L0.71054 15.29C0.0805397 15.92 0.52054 17 1.41054 17H14.5805C15.4705 17 15.9205 15.92 15.2905 15.29L14.0005 14Z" fill="#0063F7"/>
</svg>
