<svg width="20" height="19" viewBox="0 0 20 19" fill="none" xmlns="http://www.w3.org/2000/svg">
<path fill-rule="evenodd" clip-rule="evenodd" d="M14.8698 12.813C17.3135 9.80531 17.0928 5.45384 14.2076 2.68887C11.0834 -0.305146 6.01812 -0.305145 2.89393 2.68887C-0.230268 5.68289 -0.230268 10.5372 2.89393 13.5312C5.77911 16.2961 10.3198 16.5077 13.4583 14.1658C13.4718 14.1804 13.4859 14.1948 13.5005 14.2088L17.7432 18.2747C18.1337 18.6489 18.7669 18.6489 19.1574 18.2747C19.5479 17.9004 19.5479 17.2936 19.1574 16.9194L14.9147 12.8535C14.9001 12.8395 14.8851 12.826 14.8698 12.813ZM12.7934 4.04416C15.1366 6.28968 15.1366 9.93038 12.7934 12.1759C10.4503 14.4214 6.65129 14.4214 4.30814 12.1759C1.96499 9.93038 1.96499 6.28968 4.30814 4.04416C6.65129 1.79865 10.4503 1.79865 12.7934 4.04416Z" fill="#0063F7"/>
</svg>
