<svg width="14" height="14" viewBox="0 0 14 14" fill="none" xmlns="http://www.w3.org/2000/svg">
<path d="M13.3007 0.710947C12.9107 0.320947 12.2807 0.320947 11.8907 0.710947L7.0007 5.59095L2.1107 0.700947C1.7207 0.310947 1.0907 0.310947 0.700703 0.700947C0.310703 1.09095 0.310703 1.72095 0.700703 2.11095L5.5907 7.00095L0.700703 11.8909C0.310703 12.2809 0.310703 12.9109 0.700703 13.3009C1.0907 13.6909 1.7207 13.6909 2.1107 13.3009L7.0007 8.41095L11.8907 13.3009C12.2807 13.6909 12.9107 13.6909 13.3007 13.3009C13.6907 12.9109 13.6907 12.2809 13.3007 11.8909L8.4107 7.00095L13.3007 2.11095C13.6807 1.73095 13.6807 1.09095 13.3007 0.710947Z" fill="#0063F7"/>
</svg>
