<svg width="18" height="18" viewBox="0 0 18 18" fill="none" xmlns="http://www.w3.org/2000/svg">
<path d="M12.5006 11.0009H11.7106L11.4306 10.7309C12.6306 9.33087 13.2506 7.42087 12.9106 5.39087C12.4406 2.61087 10.1206 0.39087 7.32063 0.0508697C3.09063 -0.46913 -0.469374 3.09087 0.0506256 7.32087C0.390626 10.1209 2.61063 12.4409 5.39063 12.9109C7.42063 13.2509 9.33063 12.6309 10.7306 11.4309L11.0006 11.7109V12.5009L15.2506 16.7509C15.6606 17.1609 16.3306 17.1609 16.7406 16.7509C17.1506 16.3409 17.1506 15.6709 16.7406 15.2609L12.5006 11.0009ZM6.50063 11.0009C4.01063 11.0009 2.00063 8.99087 2.00063 6.50087C2.00063 4.01087 4.01063 2.00087 6.50063 2.00087C8.99063 2.00087 11.0006 4.01087 11.0006 6.50087C11.0006 8.99087 8.99063 11.0009 6.50063 11.0009Z" fill="#97C1FF"/>
</svg>
