<svg width="15" height="15" viewBox="0 0 15 15" fill="none" xmlns="http://www.w3.org/2000/svg">
<rect width="15" height="15" fill="#E5E5E5"/>
<rect x="-276.75" y="-14.75" width="1919.5" height="59.5" fill="white" stroke="#E3E8EE" stroke-width="0.5"/>
<path d="M-24.3352 30.2386C-20.4318 30.2386 -17.3807 27.6989 -16.8182 24.179C-16.2557 20.8466 -18.1733 18.4347 -21.3267 18.4347C-22.8608 18.4347 -24.2756 19.0739 -25.0426 19.9347H-25.1449L-23.9602 15.5625H-16.3409L-15.8466 12.5455H-26.517L-28.8778 21.75L-25.6903 22.3381C-25.0256 21.6222 -23.9176 21.1619 -22.8864 21.1619C-21.1222 21.1619 -20.0824 22.4403 -20.3807 24.2727C-20.6875 26.0966 -22.1193 27.3409 -23.858 27.3409C-25.3239 27.3409 -26.3551 26.4034 -26.2188 25.0653H-29.7983C-30.2244 28.0739 -27.9403 30.2386 -24.3352 30.2386ZM-1.57102 18.1875H2.17898C2.28125 14.7358 -0.360795 12.3068 -4.30682 12.3068C-8.91761 12.3068 -13.0341 15.6307 -13.9631 21.2898C-14.875 26.8125 -12.1136 30.2386 -7.20455 30.2386C-2.79829 30.2386 0.823864 27.4602 1.56534 22.858L1.94034 20.6591H-5.36364L-5.82386 23.4375H-2.08239C-2.48295 25.6023 -4.2983 26.9744 -6.76136 26.9744C-9.52273 26.9744 -10.8097 24.9034 -10.2045 21.2557C-9.60795 17.625 -7.28125 15.571 -4.60511 15.571C-2.71307 15.571 -1.75852 16.5511 -1.57102 18.1875Z" fill="#0063F7"/>
<path d="M-0.276743 9.73828C2.78206 9.73828 5.26172 12.2179 5.26172 15.2767L3.60018 15.2767C3.60018 13.1356 1.86442 11.3998 -0.276743 11.3998L-0.276743 9.73828Z" fill="#0063F7"/>
<path d="M-0.276743 9.73828C2.78206 9.73828 5.26172 12.2179 5.26172 15.2767L3.60018 15.2767C3.60018 13.1356 1.86442 11.3998 -0.276743 11.3998L-0.276743 9.73828Z" fill="#0063F7"/>
<path d="M-0.276292 5.58398C5.07662 5.58398 9.41602 9.92338 9.41602 15.2763L6.50832 15.2763C6.50832 11.5293 3.47075 8.49168 -0.276292 8.49168L-0.276292 5.58398Z" fill="#0063F7"/>
<path d="M0 -1.78873e-07C8.28427 -8.00843e-08 15 6.71573 15 15L10.5 15C10.5 9.20101 5.79899 4.5 -5.3662e-08 4.5L0 -1.78873e-07Z" fill="#0063F7"/>
</svg>
