<svg width="149" height="25" viewBox="0 0 149 25" fill="none" xmlns="http://www.w3.org/2000/svg">
<path d="M103.533 11.6001V18.8367H105.853V14.0186H114.296V18.8367H116.615V11.6126L103.533 11.6001Z" fill="black"/>
<path d="M105.594 9.25867H114.514C115.753 9.01229 116.674 7.91849 116.934 6.86035H103.174C103.431 7.91882 104.366 9.01229 105.594 9.25867Z" fill="black"/>
<path d="M96.5072 18.8406C97.6769 18.3446 98.3062 17.4866 98.5472 16.4826H88.1422L88.1488 6.86621L85.8164 6.87281V18.8406H96.5072Z" fill="black"/>
<path d="M68.4705 9.22486H76.7088C77.9507 8.86389 78.9936 7.91739 79.2479 6.86816H66.1612V13.9406H76.8722V16.4224L68.4705 16.429C67.1539 16.7963 66.0374 17.6807 65.4805 18.8488L66.1612 18.8363H79.1736V11.5892H68.4705V9.22486Z" fill="black"/>
<path d="M48.1322 9.2489H57.0495C58.2902 9.00154 59.2122 7.90874 59.4707 6.84961H45.7109C45.9678 7.90874 46.9034 9.00154 48.1322 9.2489Z" fill="black"/>
<path d="M48.1322 13.9789H57.0495C58.2902 13.7342 59.2122 12.6404 59.4707 11.5806H45.7109C45.9678 12.6407 46.9034 13.7342 48.1322 13.9789Z" fill="black"/>
<path d="M48.1322 18.8396H57.0495C58.2902 18.5929 59.2122 17.4994 59.4707 16.4409H45.7109C45.9678 17.4997 46.9034 18.5929 48.1322 18.8396Z" fill="black"/>
<path d="M24.9355 6.87908C25.2036 7.925 26.1089 8.99403 27.3508 9.26187H31.1045L31.296 9.3375V18.8128H33.64V9.3375L33.8529 9.26187H37.6099C38.8657 8.93822 39.7515 7.925 40.0149 6.87908V6.85596H24.9355V6.87908Z" fill="black"/>
<path d="M8.93547 20.8495L11.1739 8.20659C13.3075 8.20659 13.9805 8.44155 14.0776 9.40061C14.0776 9.40061 15.5089 8.86465 16.2308 7.77613C13.4138 6.4652 10.5834 6.40608 10.5834 6.40608L8.93174 8.42634L8.93547 8.42609L7.28385 6.40576C7.28385 6.40576 4.45335 6.46495 1.63672 7.77588C2.35797 8.8644 3.78982 9.40036 3.78982 9.40036C3.88756 8.44123 4.55973 8.20627 6.67901 8.20475L8.93547 20.8495Z" fill="black"/>
<path d="M8.93568 5.82293C11.2128 5.80544 13.8193 6.1767 16.4875 7.34462C16.8441 6.69999 16.9358 6.41509 16.9358 6.41509C14.019 5.25617 11.2875 4.85956 8.93536 4.84961C6.58331 4.85956 3.85193 5.25623 0.935547 6.41509C0.935547 6.41509 1.06565 6.76601 1.38353 7.34462C4.05125 6.1767 6.65815 5.80544 8.93536 5.82293H8.93568Z" fill="black"/>
<path d="M140.88 10.1397L137 14.0197L133.12 10.1397C132.73 9.74967 132.1 9.74967 131.71 10.1397C131.32 10.5297 131.32 11.1597 131.71 11.5497L136.3 16.1397C136.69 16.5297 137.32 16.5297 137.71 16.1397L142.3 11.5497C142.69 11.1597 142.69 10.5297 142.3 10.1397C141.91 9.75967 141.27 9.74967 140.88 10.1397Z" fill="#0063F7"/>
</svg>
