<!--
~ SPDX-FileCopyrightText: 2022-present Open Networking Foundation <info@opennetworking.org>
~
~ SPDX-License-Identifier: Apache-2.0
-->
<svg width="15" height="13" viewBox="0 0 15 13" fill="none" xmlns="http://www.w3.org/2000/svg">
<path fill-rule="evenodd" clip-rule="evenodd" d="M1.62499 5.20014C1.62499 4.48218 2.20701 3.90015 2.92498 3.90015H11.3749C12.0929 3.90015 12.6749 4.48218 12.6749 5.20014V11.7001C12.6749 12.418 12.0929 13.0001 11.3749 13.0001H2.92498C2.20701 13.0001 1.62499 12.418 1.62499 11.7001V5.20014ZM11.3749 5.20014H2.92498V11.7001H11.3749V5.20014Z" fill="white"/>
<path d="M4.87569 7.79994C5.23467 7.79994 5.52568 7.50893 5.52568 7.14994C5.52568 6.79096 5.23467 6.49995 4.87569 6.49995C4.51671 6.49995 4.22569 6.79096 4.22569 7.14994C4.22569 7.50893 4.51671 7.79994 4.87569 7.79994Z" fill="white"/>
<path d="M9.4242 7.79994C9.78318 7.79994 10.0742 7.50893 10.0742 7.14994C10.0742 6.79096 9.78318 6.49995 9.4242 6.49995C9.06522 6.49995 8.77421 6.79096 8.77421 7.14994C8.77421 7.50893 9.06522 7.79994 9.4242 7.79994Z" fill="white"/>
<path d="M5.85141 9.09975C5.67902 9.09975 5.51369 9.16823 5.39179 9.29013C5.26989 9.41203 5.20141 9.57736 5.20141 9.74974C5.20141 9.92213 5.26989 10.0875 5.39179 10.2094C5.51369 10.3313 5.67902 10.3997 5.85141 10.3997V9.09975ZM8.45138 10.3997C8.62377 10.3997 8.7891 10.3313 8.911 10.2094C9.0329 10.0875 9.10138 9.92213 9.10138 9.74974C9.10138 9.57736 9.0329 9.41203 8.911 9.29013C8.7891 9.16823 8.62377 9.09975 8.45138 9.09975V10.3997ZM5.85141 10.3997H8.45138V9.09975H5.85141V10.3997Z" fill="white"/>
<path fill-rule="evenodd" clip-rule="evenodd" d="M7.14994 1.2999C7.50893 1.2999 7.79994 1.59091 7.79994 1.94989V4.54987C7.79994 4.90885 7.50893 5.19987 7.14994 5.19987C6.79096 5.19987 6.49995 4.90885 6.49995 4.54987V1.94989C6.49995 1.59091 6.79096 1.2999 7.14994 1.2999Z" fill="white"/>
<path fill-rule="evenodd" clip-rule="evenodd" d="M0.649995 6.49995C1.00898 6.49995 1.29999 6.79096 1.29999 7.14994V9.74992C1.29999 10.1089 1.00898 10.3999 0.649995 10.3999C0.291012 10.3999 0 10.1089 0 9.74992V7.14994C0 6.79096 0.291012 6.49995 0.649995 6.49995Z" fill="white"/>
<path fill-rule="evenodd" clip-rule="evenodd" d="M13.6499 6.49995C14.0089 6.49995 14.2999 6.79096 14.2999 7.14994V9.74992C14.2999 10.1089 14.0089 10.3999 13.6499 10.3999C13.2909 10.3999 12.9999 10.1089 12.9999 9.74992V7.14994C12.9999 6.79096 13.2909 6.49995 13.6499 6.49995Z" fill="white"/>
<path fill-rule="evenodd" clip-rule="evenodd" d="M5.85068 1.29999C5.85068 0.582025 6.43271 0 7.15067 0C7.86863 0 8.45066 0.582025 8.45066 1.29999C8.45066 2.01795 7.86863 2.59998 7.15067 2.59998C6.43271 2.59998 5.85068 2.01795 5.85068 1.29999Z" fill="white"/>
</svg>
