<!--
~ SPDX-FileCopyrightText: 2022-present Open Networking Foundation <info@opennetworking.org>
~
~ SPDX-License-Identifier: Apache-2.0
-->
<svg width="12" height="13" viewBox="0 0 12 13" fill="none" xmlns="http://www.w3.org/2000/svg">
<path d="M6.4002 11.0402C6.1602 11.2268 5.8202 11.2268 5.5802 11.0402L1.4802 7.85351C1.2402 7.66684 0.906865 7.66684 0.666865 7.85351C0.326865 8.12017 0.326865 8.63351 0.666865 8.90018L5.17353 12.4068C5.65353 12.7802 6.32687 12.7802 6.81353 12.4068L11.3202 8.90018C11.6602 8.63351 11.6602 8.12017 11.3202 7.85351L11.3135 7.84684C11.0735 7.66018 10.7402 7.66018 10.5002 7.84684L6.4002 11.0402ZM6.8202 9.02684L11.3269 5.52018C11.6669 5.25351 11.6669 4.73351 11.3269 4.46684L6.8202 0.960176C6.3402 0.586842 5.66687 0.586842 5.1802 0.960176L0.673532 4.47351C0.333532 4.74018 0.333532 5.26018 0.673532 5.52684L5.1802 9.03351C5.6602 9.40684 6.3402 9.40684 6.8202 9.02684Z" fill="white"/>
</svg>
