<!--
~ SPDX-FileCopyrightText: 2022-present Open Networking Foundation <info@opennetworking.org>
~
~ SPDX-License-Identifier: Apache-2.0
-->
<svg width="12" height="13" viewBox="0 0 12 13" fill="none" xmlns="http://www.w3.org/2000/svg">
<path d="M6.39995 11.0402C6.15995 11.2268 5.81995 11.2268 5.57995 11.0402L1.47995 7.85351C1.23995 7.66684 0.906621 7.66684 0.666621 7.85351C0.326621 8.12017 0.326621 8.63351 0.666621 8.90018L5.17329 12.4068C5.65329 12.7802 6.32662 12.7802 6.81329 12.4068L11.32 8.90018C11.66 8.63351 11.66 8.12017 11.32 7.85351L11.3133 7.84684C11.0733 7.66018 10.74 7.66018 10.5 7.84684L6.39995 11.0402ZM6.81995 9.02684L11.3266 5.52018C11.6666 5.25351 11.6666 4.73351 11.3266 4.46684L6.81995 0.960176C6.33995 0.586842 5.66662 0.586842 5.17996 0.960176L0.673288 4.47351C0.333288 4.74018 0.333288 5.26018 0.673288 5.52684L5.17996 9.03351C5.65996 9.40684 6.33995 9.40684 6.81995 9.02684Z" fill="#0063F7"/>
</svg>
