<!--
~ SPDX-FileCopyrightText: 2022-present Open Networking Foundation <info@opennetworking.org>
~
~ SPDX-License-Identifier: Apache-2.0
-->
<svg width="14" height="13" viewBox="0 0 14 13" fill="none" xmlns="http://www.w3.org/2000/svg">
<path d="M7.00004 5.33346C6.2667 5.33346 5.6667 5.93346 5.6667 6.66679C5.6667 7.40013 6.2667 8.00013 7.00004 8.00013C7.73337 8.00013 8.33337 7.40013 8.33337 6.66679C8.33337 5.93346 7.73337 5.33346 7.00004 5.33346ZM11 6.66679C11 4.29346 8.9267 2.40013 6.50004 2.70013C4.75337 2.91346 3.31337 4.30679 3.0467 6.04679C2.8267 7.48013 3.37337 8.78679 4.33337 9.64679C4.65337 9.93346 5.15337 9.86679 5.37337 9.49346L5.38004 9.48679C5.54004 9.20679 5.47337 8.86679 5.23337 8.64679C4.5467 8.02679 4.17337 7.06679 4.42004 6.02013C4.64004 5.07346 5.4067 4.30679 6.35337 4.08013C8.10004 3.66013 9.6667 4.98013 9.6667 6.66679C9.6667 7.45346 9.32004 8.15346 8.78004 8.64013C8.54004 8.85346 8.4667 9.20013 8.6267 9.48013L8.63337 9.48679C8.84004 9.84013 9.32004 9.94679 9.63337 9.67346C10.4667 8.94013 11 7.86679 11 6.66679ZM6.22004 0.0467953C3.14004 0.393462 0.653369 2.93346 0.366703 6.02013C0.133369 8.48679 1.2467 10.7001 3.0467 12.0268C3.3667 12.2601 3.82004 12.1601 4.02004 11.8201C4.1867 11.5335 4.11337 11.1601 3.8467 10.9601C2.3267 9.83346 1.41337 7.92679 1.74004 5.82679C2.10004 3.49346 4.0467 1.63346 6.39337 1.37346C9.6067 1.0068 12.3334 3.52013 12.3334 6.66679C12.3334 8.43346 11.4734 9.98679 10.1534 10.9601C9.8867 11.1601 9.81337 11.5268 9.98004 11.8201C10.18 12.1668 10.6334 12.2601 10.9534 12.0268C12.6 10.8135 13.6667 8.86679 13.6667 6.66679C13.6667 2.72679 10.2467 -0.413205 6.22004 0.0467953Z" fill="#0063F7"/>
</svg>
