<!--
~ SPDX-FileCopyrightText: 2022-present Open Networking Foundation <info@opennetworking.org>
~
~ SPDX-License-Identifier: Apache-2.0
-->
<svg width="14" height="13" viewBox="0 0 14 13" fill="none" xmlns="http://www.w3.org/2000/svg">
<path d="M7.00004 5.33322C6.2667 5.33322 5.6667 5.93322 5.6667 6.66655C5.6667 7.39988 6.2667 7.99988 7.00004 7.99988C7.73337 7.99988 8.33337 7.39988 8.33337 6.66655C8.33337 5.93322 7.73337 5.33322 7.00004 5.33322ZM11 6.66655C11 4.29322 8.9267 2.39988 6.50004 2.69988C4.75337 2.91322 3.31337 4.30655 3.0467 6.04655C2.8267 7.47988 3.37337 8.78655 4.33337 9.64655C4.65337 9.93322 5.15337 9.86655 5.37337 9.49322L5.38004 9.48655C5.54004 9.20655 5.47337 8.86655 5.23337 8.64655C4.5467 8.02655 4.17337 7.06655 4.42004 6.01988C4.64004 5.07322 5.4067 4.30655 6.35337 4.07988C8.10004 3.65988 9.6667 4.97988 9.6667 6.66655C9.6667 7.45322 9.32004 8.15322 8.78004 8.63988C8.54004 8.85322 8.4667 9.19988 8.6267 9.47988L8.63337 9.48655C8.84004 9.83988 9.32004 9.94655 9.63337 9.67322C10.4667 8.93988 11 7.86655 11 6.66655ZM6.22004 0.0465511C3.14004 0.393218 0.653369 2.93322 0.366703 6.01988C0.133369 8.48655 1.2467 10.6999 3.0467 12.0265C3.3667 12.2599 3.82004 12.1599 4.02004 11.8199C4.1867 11.5332 4.11337 11.1599 3.8467 10.9599C2.3267 9.83322 1.41337 7.92655 1.74004 5.82655C2.10004 3.49322 4.0467 1.63322 6.39337 1.37322C9.6067 1.00655 12.3334 3.51988 12.3334 6.66655C12.3334 8.43322 11.4734 9.98655 10.1534 10.9599C9.8867 11.1599 9.81337 11.5265 9.98004 11.8199C10.18 12.1665 10.6334 12.2599 10.9534 12.0265C12.6 10.8132 13.6667 8.86655 13.6667 6.66655C13.6667 2.72655 10.2467 -0.413449 6.22004 0.0465511Z" fill="white"/>
</svg>
