<!--
~ SPDX-FileCopyrightText: 2022-present Open Networking Foundation <info@opennetworking.org>
~
~ SPDX-License-Identifier: Apache-2.0
-->
<svg width="14" height="14" viewBox="0 0 14 14" fill="none" xmlns="http://www.w3.org/2000/svg">
<path d="M6.33334 3.66683H7.66668V5.00016H6.33334V3.66683ZM7.00001 10.3335C7.36668 10.3335 7.66668 10.0335 7.66668 9.66683V7.00016C7.66668 6.6335 7.36668 6.3335 7.00001 6.3335C6.63334 6.3335 6.33334 6.6335 6.33334 7.00016V9.66683C6.33334 10.0335 6.63334 10.3335 7.00001 10.3335ZM7.00001 0.333496C3.32001 0.333496 0.333344 3.32016 0.333344 7.00016C0.333344 10.6802 3.32001 13.6668 7.00001 13.6668C10.68 13.6668 13.6667 10.6802 13.6667 7.00016C13.6667 3.32016 10.68 0.333496 7.00001 0.333496ZM7.00001 12.3335C4.06001 12.3335 1.66668 9.94016 1.66668 7.00016C1.66668 4.06016 4.06001 1.66683 7.00001 1.66683C9.94001 1.66683 12.3333 4.06016 12.3333 7.00016C12.3333 9.94016 9.94001 12.3335 7.00001 12.3335Z" fill="#0063F7"/>
</svg>
