<!--
~ SPDX-FileCopyrightText: 2022-present Open Networking Foundation <info@opennetworking.org>
~
~ SPDX-License-Identifier: Apache-2.0
-->
<svg width="14" height="14" viewBox="0 0 14 14" fill="none" xmlns="http://www.w3.org/2000/svg">
<path d="M6.99992 0.333344C3.31992 0.333344 0.333252 3.32001 0.333252 7.00001C0.333252 10.68 3.31992 13.6667 6.99992 13.6667C10.6799 13.6667 13.6666 10.68 13.6666 7.00001C13.6666 3.32001 10.6799 0.333344 6.99992 0.333344ZM6.99992 12.3333C4.05992 12.3333 1.66659 9.94001 1.66659 7.00001C1.66659 4.06001 4.05992 1.66668 6.99992 1.66668C9.93992 1.66668 12.3333 4.06001 12.3333 7.00001C12.3333 9.94001 9.93992 12.3333 6.99992 12.3333ZM9.58659 4.52668L5.66659 8.44668L4.41325 7.19334C4.15325 6.93334 3.73325 6.93334 3.47325 7.19334C3.21325 7.45334 3.21325 7.87334 3.47325 8.13334L5.19992 9.86001C5.45992 10.12 5.87992 10.12 6.13992 9.86001L10.5333 5.46668C10.7933 5.20668 10.7933 4.78668 10.5333 4.52668C10.2733 4.26668 9.84659 4.26668 9.58659 4.52668Z" fill="#0063F7"/>
</svg>
