<!--
~ SPDX-FileCopyrightText: 2022-present Open Networking Foundation <info@opennetworking.org>
~
~ SPDX-License-Identifier: Apache-2.0
-->
<svg width="14" height="14" viewBox="0 0 14 14" fill="none" xmlns="http://www.w3.org/2000/svg">
<path d="M12.944 5.37593C12.9792 5.29588 12.9983 5.20967 13.0002 5.12223C13.002 5.03479 12.9866 4.94784 12.9549 4.86636C12.9231 4.78487 12.8756 4.71045 12.815 4.64734C12.7545 4.58424 12.6821 4.53369 12.602 4.4986L3.88531 0.661264C3.22198 0.369264 2.40531 0.695264 2.12198 1.35593L0.648646 4.79193C0.510038 5.11695 0.506038 5.48368 0.637524 5.81164C0.769009 6.13961 1.02524 6.40201 1.34998 6.54126L5.37531 8.2666L4.54865 10.3333H1.66665V8.33326H0.333313V13.6666H1.66665V11.6666H4.54865C5.09731 11.6666 5.58331 11.3373 5.78598 10.8279L6.60065 8.79193L10.0706 10.2786C10.2322 10.3479 10.4147 10.3506 10.5783 10.2861C10.7419 10.2215 10.8733 10.0949 10.944 9.93393L11.152 9.4606L12.286 9.91393L13.6193 6.5806L12.5953 6.17193L12.944 5.37593ZM9.98798 8.79326L1.87531 5.3166L3.34731 1.88193L11.4553 5.45126L9.98798 8.79326Z" fill="#0063F7"/>
</svg>
