<!--
~ SPDX-FileCopyrightText: 2022-present Open Networking Foundation <info@opennetworking.org>
~
~ SPDX-License-Identifier: Apache-2.0
-->
<svg width="12" height="12" viewBox="0 0 12 12" fill="none" xmlns="http://www.w3.org/2000/svg">
<path d="M8.91687 5.41667H10.6669C11.3144 5.41667 11.8335 4.89167 11.8335 4.25V1.91667C11.8335 1.26917 11.3085 0.75 10.6669 0.75H8.91687C8.26937 0.75 7.7502 1.275 7.7502 1.91667V2.5H4.25604V1.91667C4.25604 1.26917 3.73104 0.75 3.08937 0.75H1.33354C0.69187 0.75 0.16687 1.275 0.16687 1.91667V4.25C0.16687 4.8975 0.69187 5.41667 1.33354 5.41667H3.08354C3.73104 5.41667 4.2502 4.89167 4.2502 4.25V3.66667H5.41687V7.75583C5.41687 8.71833 6.19854 9.5 7.16104 9.5H7.7502V10.0833C7.7502 10.7308 8.2752 11.25 8.91687 11.25H10.6669C11.3144 11.25 11.8335 10.725 11.8335 10.0833V7.75C11.8335 7.1025 11.3085 6.58333 10.6669 6.58333H8.91687C8.26937 6.58333 7.7502 7.10833 7.7502 7.75V8.33333H7.16104C6.84604 8.33333 6.58354 8.07083 6.58354 7.75583V3.66667H7.7502V4.25C7.7502 4.89167 8.2752 5.41667 8.91687 5.41667Z" fill="#0063F7"/>
</svg>
