<!--
~ SPDX-FileCopyrightText: 2022-present Open Networking Foundation <info@opennetworking.org>
~
~ SPDX-License-Identifier: Apache-2.0
-->
<svg width="14" height="14" viewBox="0 0 14 14" fill="none" xmlns="http://www.w3.org/2000/svg">
<path d="M7.66699 10.3334L6.33366 10.3334L6.33366 9.00002L7.66699 9.00002L7.66699 10.3334ZM7.00033 3.66668C6.63366 3.66668 6.33366 3.96668 6.33366 4.33335L6.33366 7.00002C6.33366 7.36669 6.63366 7.66668 7.00033 7.66668C7.36699 7.66669 7.66699 7.36669 7.66699 7.00002L7.66699 4.33335C7.66699 3.96668 7.36699 3.66668 7.00033 3.66668ZM7.00032 13.6667C10.6803 13.6667 13.667 10.68 13.667 7.00002C13.667 3.32002 10.6803 0.333351 7.00033 0.333351C3.32033 0.33335 0.333658 3.32002 0.333658 7.00002C0.333658 10.68 3.32032 13.6667 7.00032 13.6667ZM7.00033 1.66668C9.94033 1.66668 12.3337 4.06002 12.3337 7.00002C12.3337 9.94002 9.94033 12.3334 7.00032 12.3334C4.06032 12.3334 1.66699 9.94002 1.66699 7.00002C1.66699 4.06002 4.06033 1.66668 7.00033 1.66668Z" fill="white"/>
</svg>
