<!--
~ SPDX-FileCopyrightText: 2022-present Open Networking Foundation <info@opennetworking.org>
~
~ SPDX-License-Identifier: Apache-2.0
-->
<svg width="10" height="12" viewBox="0 0 10 12" fill="none" xmlns="http://www.w3.org/2000/svg">
<path d="M0.999919 10.6667C0.999919 11.4 1.59992 12 2.33325 12H7.66659C8.39992 12 8.99992 11.4 8.99992 10.6667V4C8.99992 3.26667 8.39992 2.66667 7.66659 2.66667H2.33325C1.59992 2.66667 0.999919 3.26667 0.999919 4V10.6667ZM8.99992 0.666667H7.33325L6.85992 0.193333C6.73992 0.0733333 6.56659 0 6.39325 0H3.60659C3.43325 0 3.25992 0.0733333 3.13992 0.193333L2.66659 0.666667H0.999919C0.633252 0.666667 0.333252 0.966667 0.333252 1.33333C0.333252 1.7 0.633252 2 0.999919 2H8.99992C9.36659 2 9.66659 1.7 9.66659 1.33333C9.66659 0.966667 9.36659 0.666667 8.99992 0.666667Z" fill="#EF233C"/>
</svg>
