<svg width="17" height="15" viewBox="0 0 17 15" fill="none" xmlns="http://www.w3.org/2000/svg">
<path fill-rule="evenodd" clip-rule="evenodd" d="M1.875 5.99989C1.875 5.17146 2.54657 4.49989 3.375 4.49989H13.125C13.9534 4.49989 14.625 5.17146 14.625 5.99989V13.4999C14.625 14.3283 13.9534 14.9999 13.125 14.9999H3.375C2.54657 14.9999 1.875 14.3283 1.875 13.4999V5.99989ZM13.125 5.99989H3.375V13.4999H13.125V5.99989Z" fill="#0063F7"/>
<path d="M5.62455 9.00001C6.03877 9.00001 6.37455 8.66422 6.37455 8.25001C6.37455 7.83579 6.03877 7.50001 5.62455 7.50001C5.21034 7.50001 4.87455 7.83579 4.87455 8.25001C4.87455 8.66422 5.21034 9.00001 5.62455 9.00001Z" fill="#0063F7"/>
<path d="M10.8755 9.00001C11.2897 9.00001 11.6255 8.66422 11.6255 8.25001C11.6255 7.83579 11.2897 7.50001 10.8755 7.50001C10.4612 7.50001 10.1255 7.83579 10.1255 8.25001C10.1255 8.66422 10.4612 9.00001 10.8755 9.00001Z" fill="#0063F7"/>
<path d="M6.7491 10.5001C6.55019 10.5001 6.35943 10.5791 6.21877 10.7198C6.07812 10.8604 5.9991 11.0512 5.9991 11.2501C5.9991 11.449 6.07812 11.6398 6.21877 11.7805C6.35943 11.9211 6.55019 12.0001 6.7491 12.0001V10.5001ZM9.74911 12.0001C9.94802 12.0001 10.1388 11.9211 10.2794 11.7805C10.4201 11.6398 10.4991 11.449 10.4991 11.2501C10.4991 11.0512 10.4201 10.8604 10.2794 10.7198C10.1388 10.5791 9.94802 10.5001 9.74911 10.5001V12.0001ZM6.7491 12.0001H9.74911V10.5001H6.7491V12.0001Z" fill="#0063F7"/>
<path fill-rule="evenodd" clip-rule="evenodd" d="M8.25001 1.50006C8.66422 1.50006 9.00001 1.83584 9.00001 2.25006V5.25006C9.00001 5.66427 8.66422 6.00006 8.25001 6.00006C7.83579 6.00006 7.50001 5.66427 7.50001 5.25006V2.25006C7.50001 1.83584 7.83579 1.50006 8.25001 1.50006Z" fill="#0063F7"/>
<path fill-rule="evenodd" clip-rule="evenodd" d="M0.750001 7.50001C1.16421 7.50001 1.5 7.83579 1.5 8.25001V11.25C1.5 11.6642 1.16421 12 0.750001 12C0.335787 12 0 11.6642 0 11.25V8.25001C0 7.83579 0.335787 7.50001 0.750001 7.50001Z" fill="#0063F7"/>
<path fill-rule="evenodd" clip-rule="evenodd" d="M15.75 7.50001C16.1642 7.50001 16.5 7.83579 16.5 8.25001V11.25C16.5 11.6642 16.1642 12 15.75 12C15.3358 12 15 11.6642 15 11.25V8.25001C15 7.83579 15.3358 7.50001 15.75 7.50001Z" fill="#0063F7"/>
<path fill-rule="evenodd" clip-rule="evenodd" d="M6.74955 1.5C6.74955 0.671573 7.42113 0 8.24956 0C9.07798 0 9.74956 0.671573 9.74956 1.5C9.74956 2.32843 9.07798 3 8.24956 3C7.42113 3 6.74955 2.32843 6.74955 1.5Z" fill="#0063F7"/>
</svg>
