<!--
~ SPDX-FileCopyrightText: 2022-present Open Networking Foundation <info@opennetworking.org>
~
~ SPDX-License-Identifier: Apache-2.0
-->
<svg width="9" height="10" viewBox="0 0 9 10" fill="none" xmlns="http://www.w3.org/2000/svg">
<path fill-rule="evenodd" clip-rule="evenodd" d="M4.55249 0.722168C4.88577 0.722168 5.15594 0.995772 5.15594 1.33328V4.57481H8.12071C8.45398 4.57481 8.72416 4.84841 8.72416 5.18592C8.72416 5.52343 8.45398 5.79703 8.12071 5.79703H5.15594V8.66661C5.15594 9.00412 4.88577 9.27772 4.55249 9.27772C4.21922 9.27772 3.94904 9.00412 3.94904 8.66661V5.79703H0.879327C0.546052 5.79703 0.275879 5.52343 0.275879 5.18592C0.275879 4.84841 0.546052 4.57481 0.879327 4.57481H3.94904V1.33328C3.94904 0.995772 4.21922 0.722168 4.55249 0.722168Z" fill="#A3A3A3"/>
</svg>
