<!--
~ SPDX-FileCopyrightText: 2022-present Open Networking Foundation <info@opennetworking.org>
~
~ SPDX-License-Identifier: Apache-2.0
-->
<svg width="14" height="14" viewBox="0 0 14 14" fill="none" xmlns="http://www.w3.org/2000/svg">
<path d="M7.6665 10.3333L6.33317 10.3333L6.33317 8.99996L7.6665 8.99996L7.6665 10.3333ZM6.99984 3.66662C6.63317 3.66662 6.33317 3.96662 6.33317 4.33329L6.33317 6.99996C6.33317 7.36662 6.63317 7.66662 6.99984 7.66662C7.3665 7.66662 7.6665 7.36662 7.6665 6.99996L7.6665 4.33329C7.6665 3.96662 7.3665 3.66662 6.99984 3.66662ZM6.99984 13.6666C10.6798 13.6666 13.6665 10.68 13.6665 6.99996C13.6665 3.31996 10.6798 0.33329 6.99984 0.33329C3.31984 0.333289 0.33317 3.31996 0.33317 6.99996C0.333169 10.68 3.31984 13.6666 6.99984 13.6666ZM6.99984 1.66662C9.93984 1.66662 12.3332 4.05996 12.3332 6.99996C12.3332 9.93996 9.93984 12.3333 6.99984 12.3333C4.05984 12.3333 1.6665 9.93996 1.6665 6.99996C1.6665 4.05996 4.05984 1.66662 6.99984 1.66662Z" fill="#EF233C"/>
</svg>
