<!--
~ SPDX-FileCopyrightText: 2022-present Open Networking Foundation <info@opennetworking.org>
~
~ SPDX-License-Identifier: Apache-2.0
-->
<svg width="120" height="120" viewBox="0 0 120 120" fill="none" xmlns="http://www.w3.org/2000/svg">
<path d="M60 0C44.0913 0.0138157 28.838 6.33966 17.5889 17.5889C6.33966 28.838 0.0138157 44.0913 0 60C0.0275881 75.9045 6.35786 91.1497 17.6041 102.396C28.8503 113.642 44.0955 119.972 60 120C75.913 120 91.1742 113.679 102.426 102.426C113.679 91.1742 120 75.913 120 60C119.986 44.0913 113.66 28.838 102.411 17.5889C91.162 6.33966 75.9088 0.0138157 60 0V0ZM97.2522 93.913C95.3475 90.6252 93.0334 87.5923 90.3652 84.887C86.3779 80.8989 81.6439 77.7353 76.4338 75.577C71.2237 73.4186 65.6395 72.3077 60 72.3077C54.3605 72.3077 48.7763 73.4186 43.5662 75.577C38.3561 77.7353 33.6222 80.8989 29.6348 84.887C26.9666 87.5923 24.6525 90.6252 22.7478 93.913C14.2572 84.6638 9.56288 72.5553 9.6 60C9.6 46.6331 14.91 33.8137 24.3618 24.3618C33.8137 14.91 46.6331 9.6 60 9.6C73.3669 9.6 86.1864 14.91 95.6382 24.3618C105.09 33.8137 110.4 46.6331 110.4 60C110.424 72.5374 105.731 84.6249 97.2522 93.8609V93.913Z" fill="#DDDDDD"/>
</svg>
