<!--
~ SPDX-FileCopyrightText: 2022-present Open Networking Foundation <info@opennetworking.org>
~
~ SPDX-License-Identifier: Apache-2.0
-->
<svg width="18" height="18" viewBox="0 0 18 18" fill="none" xmlns="http://www.w3.org/2000/svg">
<path d="M16 10.1667H10.1667V16C10.1667 16.6417 9.64171 17.1667 9.00004 17.1667C8.35838 17.1667 7.83337 16.6417 7.83337 16V10.1667H2.00004C1.35837 10.1667 0.833374 9.64171 0.833374 9.00004C0.833374 8.35838 1.35837 7.83337 2.00004 7.83337H7.83337V2.00004C7.83337 1.35837 8.35838 0.833374 9.00004 0.833374C9.64171 0.833374 10.1667 1.35837 10.1667 2.00004V7.83337H16C16.6417 7.83337 17.1667 8.35838 17.1667 9.00004C17.1667 9.64171 16.6417 10.1667 16 10.1667Z" fill="#0063F7"/>
</svg>
