<!--
~ SPDX-FileCopyrightText: 2022-present Open Networking Foundation <info@opennetworking.org>
~
~ SPDX-License-Identifier: Apache-2.0
-->
<svg width="14" height="13" viewBox="0 0 14 13" fill="none" xmlns="http://www.w3.org/2000/svg">
<path d="M6.99998 5.33322C6.26664 5.33322 5.66664 5.93322 5.66664 6.66655C5.66664 7.39988 6.26664 7.99988 6.99998 7.99988C7.73331 7.99988 8.33331 7.39988 8.33331 6.66655C8.33331 5.93322 7.73331 5.33322 6.99998 5.33322ZM11 6.66655C11 4.29322 8.92664 2.39988 6.49998 2.69988C4.75331 2.91322 3.31331 4.30655 3.04664 6.04655C2.82664 7.47988 3.37331 8.78655 4.33331 9.64655C4.65331 9.93322 5.15331 9.86655 5.37331 9.49322L5.37997 9.48655C5.53997 9.20655 5.47331 8.86655 5.23331 8.64655C4.54664 8.02655 4.17331 7.06655 4.41998 6.01988C4.63998 5.07322 5.40664 4.30655 6.35331 4.07988C8.09998 3.65988 9.66664 4.97988 9.66664 6.66655C9.66664 7.45322 9.31998 8.15322 8.77998 8.63988C8.53998 8.85322 8.46664 9.19988 8.62664 9.47988L8.63331 9.48655C8.83998 9.83988 9.31997 9.94655 9.63331 9.67322C10.4666 8.93988 11 7.86655 11 6.66655ZM6.21998 0.0465511C3.13998 0.393218 0.653308 2.93322 0.366642 6.01988C0.133308 8.48655 1.24664 10.6999 3.04664 12.0265C3.36664 12.2599 3.81998 12.1599 4.01998 11.8199C4.18664 11.5332 4.11331 11.1599 3.84664 10.9599C2.32664 9.83322 1.41331 7.92655 1.73998 5.82655C2.09998 3.49322 4.04664 1.63322 6.39331 1.37322C9.60664 1.00655 12.3333 3.51988 12.3333 6.66655C12.3333 8.43322 11.4733 9.98655 10.1533 10.9599C9.88664 11.1599 9.81331 11.5265 9.97997 11.8199C10.18 12.1665 10.6333 12.2599 10.9533 12.0265C12.6 10.8132 13.6666 8.86655 13.6666 6.66655C13.6666 2.72655 10.2466 -0.413449 6.21998 0.0465511Z" fill="#0063F7"/>
</svg>
