<svg width="12" height="13" viewBox="0 0 12 13" fill="none" xmlns="http://www.w3.org/2000/svg">
<path d="M6.40011 11.0402C6.16011 11.2268 5.82011 11.2268 5.58011 11.0402L1.48011 7.85351C1.24011 7.66684 0.906774 7.66684 0.666774 7.85351C0.326774 8.12017 0.326774 8.63351 0.666774 8.90018L5.17344 12.4068C5.65344 12.7802 6.32677 12.7802 6.81344 12.4068L11.3201 8.90018C11.6601 8.63351 11.6601 8.12017 11.3201 7.85351L11.3134 7.84684C11.0734 7.66018 10.7401 7.66018 10.5001 7.84684L6.40011 11.0402ZM6.82011 9.02684L11.3268 5.52018C11.6668 5.25351 11.6668 4.73351 11.3268 4.46684L6.82011 0.960176C6.34011 0.586842 5.66677 0.586842 5.18011 0.960176L0.673441 4.47351C0.33344 4.74018 0.33344 5.26018 0.673441 5.52684L5.18011 9.03351C5.66011 9.40684 6.34011 9.40684 6.82011 9.02684Z" fill="#0063F7"/>
</svg>
