<!--
~ SPDX-FileCopyrightText: 2022-present Open Networking Foundation <info@opennetworking.org>
~
~ SPDX-License-Identifier: Apache-2.0
-->
<svg width="10" height="21" viewBox="0 0 10 21" fill="none" xmlns="http://www.w3.org/2000/svg">
<path d="M1.5 3C2.32843 3 3 2.32843 3 1.5C3 0.671573 2.32843 0 1.5 0C0.671573 0 0 0.671573 0 1.5C0 2.32843 0.671573 3 1.5 3Z" fill="#0063F7"/>
<path d="M1.5 9C2.32843 9 3 8.32843 3 7.5C3 6.67157 2.32843 6 1.5 6C0.671573 6 0 6.67157 0 7.5C0 8.32843 0.671573 9 1.5 9Z" fill="#0063F7"/>
<path d="M3 13.5C3 14.3284 2.32843 15 1.5 15C0.671573 15 0 14.3284 0 13.5C0 12.6716 0.671573 12 1.5 12C2.32843 12 3 12.6716 3 13.5Z" fill="#0063F7"/>
<path d="M1.5 21C2.32843 21 3 20.3284 3 19.5C3 18.6716 2.32843 18 1.5 18C0.671573 18 0 18.6716 0 19.5C0 20.3284 0.671573 21 1.5 21Z" fill="#0063F7"/>
<path d="M10 1.5C10 2.32843 9.32843 3 8.5 3C7.67157 3 7 2.32843 7 1.5C7 0.671573 7.67157 0 8.5 0C9.32843 0 10 0.671573 10 1.5Z" fill="#0063F7"/>
<path d="M8.5 9C9.32843 9 10 8.32843 10 7.5C10 6.67157 9.32843 6 8.5 6C7.67157 6 7 6.67157 7 7.5C7 8.32843 7.67157 9 8.5 9Z" fill="#0063F7"/>
<path d="M10 13.5C10 14.3284 9.32843 15 8.5 15C7.67157 15 7 14.3284 7 13.5C7 12.6716 7.67157 12 8.5 12C9.32843 12 10 12.6716 10 13.5Z" fill="#0063F7"/>
<path d="M8.5 21C9.32843 21 10 20.3284 10 19.5C10 18.6716 9.32843 18 8.5 18C7.67157 18 7 18.6716 7 19.5C7 20.3284 7.67157 21 8.5 21Z" fill="#0063F7"/>
</svg>
