<!--
~ SPDX-FileCopyrightText: 2022-present Open Networking Foundation <info@opennetworking.org>
~
~ SPDX-License-Identifier: Apache-2.0
-->
<svg width="10" height="12" viewBox="0 0 10 12" fill="none" xmlns="http://www.w3.org/2000/svg">
<path d="M3.66659 8.66673H6.33325C6.69992 8.66673 6.99992 8.36673 6.99992 8.00006V4.66673H8.05992C8.65325 4.66673 8.95325 3.94673 8.53325 3.52673L5.47325 0.466728C5.21325 0.206729 4.79325 0.206729 4.53325 0.466728L1.47325 3.52673C1.05325 3.94673 1.34659 4.66673 1.93992 4.66673H2.99992V8.00006C2.99992 8.36673 3.29992 8.66673 3.66659 8.66673ZM0.999919 10.0001H8.99992C9.36659 10.0001 9.66659 10.3001 9.66659 10.6667C9.66659 11.0334 9.36659 11.3334 8.99992 11.3334H0.999919C0.633252 11.3334 0.333252 11.0334 0.333252 10.6667C0.333252 10.3001 0.633252 10.0001 0.999919 10.0001Z" fill="#0063F7"/>
</svg>
