<!--
~ SPDX-FileCopyrightText: 2022-present Open Networking Foundation <info@opennetworking.org>
~
~ SPDX-License-Identifier: Apache-2.0
-->
<svg width="26" height="28" viewBox="0 0 26 28" fill="none" xmlns="http://www.w3.org/2000/svg">
<path d="M13.9005 24.0903C13.3605 24.5103 12.5955 24.5103 12.0555 24.0903L2.83051 16.9203C2.29051 16.5003 1.54051 16.5003 1.00051 16.9203C0.235508 17.5203 0.235508 18.6753 1.00051 19.2753L11.1405 27.1653C12.2205 28.0053 13.7355 28.0053 14.8305 27.1653L24.9705 19.2753C25.7355 18.6753 25.7355 17.5203 24.9705 16.9203L24.9555 16.9053C24.4155 16.4853 23.6655 16.4853 23.1255 16.9053L13.9005 24.0903ZM14.8455 19.5603L24.9855 11.6703C25.7505 11.0703 25.7505 9.90027 24.9855 9.30027L14.8455 1.41027C13.7655 0.570273 12.2505 0.570273 11.1555 1.41027L1.01551 9.31527C0.250508 9.91527 0.250508 11.0853 1.01551 11.6853L11.1555 19.5753C12.2355 20.4153 13.7655 20.4153 14.8455 19.5603Z" fill="#0063F7"/>
</svg>
