<!--
~ SPDX-FileCopyrightText: 2022-present Open Networking Foundation <info@opennetworking.org>
~
~ SPDX-License-Identifier: Apache-2.0
-->
<svg width="12" height="8" viewBox="0 0 12 8" fill="none" xmlns="http://www.w3.org/2000/svg">
<path d="M0.666667 4.66663C1.03333 4.66663 1.33333 4.36663 1.33333 3.99996C1.33333 3.63329 1.03333 3.33329 0.666667 3.33329C0.3 3.33329 0 3.63329 0 3.99996C0 4.36663 0.3 4.66663 0.666667 4.66663ZM0.666667 7.33329C1.03333 7.33329 1.33333 7.03329 1.33333 6.66663C1.33333 6.29996 1.03333 5.99996 0.666667 5.99996C0.3 5.99996 0 6.29996 0 6.66663C0 7.03329 0.3 7.33329 0.666667 7.33329ZM0.666667 1.99996C1.03333 1.99996 1.33333 1.69996 1.33333 1.33329C1.33333 0.966626 1.03333 0.666626 0.666667 0.666626C0.3 0.666626 0 0.966626 0 1.33329C0 1.69996 0.3 1.99996 0.666667 1.99996ZM3.33333 4.66663H11.3333C11.7 4.66663 12 4.36663 12 3.99996C12 3.63329 11.7 3.33329 11.3333 3.33329H3.33333C2.96667 3.33329 2.66667 3.63329 2.66667 3.99996C2.66667 4.36663 2.96667 4.66663 3.33333 4.66663ZM3.33333 7.33329H11.3333C11.7 7.33329 12 7.03329 12 6.66663C12 6.29996 11.7 5.99996 11.3333 5.99996H3.33333C2.96667 5.99996 2.66667 6.29996 2.66667 6.66663C2.66667 7.03329 2.96667 7.33329 3.33333 7.33329ZM2.66667 1.33329C2.66667 1.69996 2.96667 1.99996 3.33333 1.99996H11.3333C11.7 1.99996 12 1.69996 12 1.33329C12 0.966626 11.7 0.666626 11.3333 0.666626H3.33333C2.96667 0.666626 2.66667 0.966626 2.66667 1.33329ZM0.666667 4.66663C1.03333 4.66663 1.33333 4.36663 1.33333 3.99996C1.33333 3.63329 1.03333 3.33329 0.666667 3.33329C0.3 3.33329 0 3.63329 0 3.99996C0 4.36663 0.3 4.66663 0.666667 4.66663ZM0.666667 7.33329C1.03333 7.33329 1.33333 7.03329 1.33333 6.66663C1.33333 6.29996 1.03333 5.99996 0.666667 5.99996C0.3 5.99996 0 6.29996 0 6.66663C0 7.03329 0.3 7.33329 0.666667 7.33329ZM0.666667 1.99996C1.03333 1.99996 1.33333 1.69996 1.33333 1.33329C1.33333 0.966626 1.03333 0.666626 0.666667 0.666626C0.3 0.666626 0 0.966626 0 1.33329C0 1.69996 0.3 1.99996 0.666667 1.99996ZM3.33333 4.66663H11.3333C11.7 4.66663 12 4.36663 12 3.99996C12 3.63329 11.7 3.33329 11.3333 3.33329H3.33333C2.96667 3.33329 2.66667 3.63329 2.66667 3.99996C2.66667 4.36663 2.96667 4.66663 3.33333 4.66663ZM3.33333 7.33329H11.3333C11.7 7.33329 12 7.03329 12 6.66663C12 6.29996 11.7 5.99996 11.3333 5.99996H3.33333C2.96667 5.99996 2.66667 6.29996 2.66667 6.66663C2.66667 7.03329 2.96667 7.33329 3.33333 7.33329ZM2.66667 1.33329C2.66667 1.69996 2.96667 1.99996 3.33333 1.99996H11.3333C11.7 1.99996 12 1.69996 12 1.33329C12 0.966626 11.7 0.666626 11.3333 0.666626H3.33333C2.96667 0.666626 2.66667 0.966626 2.66667 1.33329Z" fill="#0063F7"/>
</svg>
