<!--
~ SPDX-FileCopyrightText: 2022-present Open Networking Foundation <info@opennetworking.org>
~
~ SPDX-License-Identifier: Apache-2.0
-->
<svg width="15" height="15" viewBox="0 0 32 32" fill="none" xmlns="http://www.w3.org/2000/svg">
<path d="M30.2032 12.2106C30.2854 12.0238 30.3299 11.8226 30.3343 11.6186C30.3387 11.4146 30.3028 11.2117 30.2286 11.0216C30.1545 10.8314 30.0436 10.6578 29.9024 10.5106C29.7611 10.3633 29.5921 10.2454 29.4052 10.1635L9.06632 1.2097C7.51854 0.528363 5.61299 1.28903 4.95188 2.83058L1.5141 10.8479C1.19068 11.6063 1.18135 12.462 1.48814 13.2272C1.79494 13.9925 2.39281 14.6048 3.15054 14.9297L12.543 18.9555L10.6141 23.7777H3.88943V19.111H0.77832V31.5555H3.88943V26.8888H10.6141C11.8943 26.8888 13.0283 26.1204 13.5012 24.9319L15.4021 20.1812L23.4988 23.6501C23.8758 23.8119 24.3016 23.8182 24.6832 23.6676C25.0649 23.517 25.3716 23.2216 25.5365 22.8459L26.0219 21.7415L28.6679 22.7992L31.779 15.0215L29.3897 14.0679L30.2032 12.2106ZM23.3059 20.1844L4.37632 12.0721L7.81099 4.05792L26.7297 12.3864L23.3059 20.1844Z" fill="#0063F7"/>
</svg>
