<!--
~ SPDX-FileCopyrightText: 2022-present Open Networking Foundation <info@opennetworking.org>
~
~ SPDX-License-Identifier: Apache-2.0
-->
<svg width="24" height="24" viewBox="0 0 24 24" fill="none" xmlns="http://www.w3.org/2000/svg">
<circle cx="12" cy="12" r="12" fill="#EDF4FF"/>
<path d="M18.9437 10.3759C18.9789 10.2959 18.998 10.2097 18.9999 10.1222C19.0017 10.0348 18.9863 9.94784 18.9546 9.86636C18.9228 9.78487 18.8753 9.71045 18.8147 9.64734C18.7542 9.58424 18.6818 9.53369 18.6017 9.4986L9.88501 5.66126C9.22167 5.36926 8.40501 5.69526 8.12167 6.35593L6.64834 9.79193C6.50973 10.1169 6.50573 10.4837 6.63722 10.8116C6.7687 11.1396 7.02493 11.402 7.34967 11.5413L11.375 13.2666L10.5483 15.3333H7.66634V13.3333H6.33301V18.6666H7.66634V16.6666H10.5483C11.097 16.6666 11.583 16.3373 11.7857 15.8279L12.6003 13.7919L16.0703 15.2786C16.2319 15.3479 16.4144 15.3506 16.578 15.2861C16.7415 15.2215 16.873 15.0949 16.9437 14.9339L17.1517 14.4606L18.2857 14.9139L19.619 11.5806L18.595 11.1719L18.9437 10.3759ZM15.9877 13.7933L7.87501 10.3166L9.34701 6.88193L17.455 10.4513L15.9877 13.7933Z" fill="#0063F7"/>
</svg>
