<!--
~ SPDX-FileCopyrightText: 2022-present Open Networking Foundation <info@opennetworking.org>
~
~ SPDX-License-Identifier: Apache-2.0
-->
<svg width="8" height="8" viewBox="0 0 8 8" fill="none" xmlns="http://www.w3.org/2000/svg">
<path d="M7.67443 0.330755C7.44693 0.103255 7.07943 0.103255 6.85193 0.330755L3.99943 3.17742L1.14693 0.324922C0.919434 0.0974219 0.551934 0.0974219 0.324434 0.324922C0.0969336 0.552422 0.0969336 0.919922 0.324434 1.14742L3.17693 3.99992L0.324434 6.85242C0.0969336 7.07992 0.0969336 7.44742 0.324434 7.67492C0.551934 7.90242 0.919434 7.90242 1.14693 7.67492L3.99943 4.82242L6.85193 7.67492C7.07943 7.90242 7.44693 7.90242 7.67443 7.67492C7.90193 7.44742 7.90193 7.07992 7.67443 6.85242L4.82193 3.99992L7.67443 1.14742C7.8961 0.925755 7.8961 0.552422 7.67443 0.330755Z" fill="#EF233C"/>
</svg>
