<!--
~ SPDX-FileCopyrightText: 2022-present Open Networking Foundation <info@opennetworking.org>
~
~ SPDX-License-Identifier: Apache-2.0
-->
<svg width="12" height="12" viewBox="0 0 12 12" fill="none" xmlns="http://www.w3.org/2000/svg">
<path d="M8.33326 7.33375H7.8066L7.61993 7.15375C8.41993 6.22042 8.83326 4.94708 8.6066 3.59375C8.29326 1.74042 6.7466 0.260417 4.87993 0.0337504C2.05993 -0.312916 -0.313405 2.06042 0.0332621 4.88042C0.259929 6.74708 1.73993 8.29375 3.59326 8.60708C4.9466 8.83375 6.21993 8.42042 7.15326 7.62042L7.33326 7.80708V8.33375L10.1666 11.1671C10.4399 11.4404 10.8866 11.4404 11.1599 11.1671C11.4333 10.8938 11.4333 10.4471 11.1599 10.1738L8.33326 7.33375ZM4.33326 7.33375C2.67326 7.33375 1.33326 5.99375 1.33326 4.33375C1.33326 2.67375 2.67326 1.33375 4.33326 1.33375C5.99326 1.33375 7.33326 2.67375 7.33326 4.33375C7.33326 5.99375 5.99326 7.33375 4.33326 7.33375Z" fill="#0063F7"/>
</svg>
