<!--
~ SPDX-FileCopyrightText: 2022-present Open Networking Foundation <info@opennetworking.org>
~
~ SPDX-License-Identifier: Apache-2.0
-->
<svg width="24" height="30" viewBox="0 0 24 30" fill="none" xmlns="http://www.w3.org/2000/svg">
<path d="M20.4993 0.833984H10.3418C9.59101 0.833984 8.86851 1.13148 8.33018 1.66982L1.51602 8.51232C0.991849 9.03648 0.666016 9.75898 0.666016 10.4957V26.334C0.666016 27.8923 1.94102 29.1673 3.49935 29.1673H20.4993C22.0577 29.1673 23.3327 27.8923 23.3327 26.334V3.66732C23.3327 2.10898 22.0577 0.833984 20.4993 0.833984ZM10.5827 9.33398C9.80351 9.33398 9.16601 8.69649 9.16601 7.91732V5.08398C9.16601 4.30482 9.80351 3.66732 10.5827 3.66732C11.3618 3.66732 11.9993 4.30482 11.9993 5.08398V7.91732C11.9993 8.69649 11.3618 9.33398 10.5827 9.33398ZM14.8327 9.33398C14.0535 9.33398 13.416 8.69649 13.416 7.91732V5.08398C13.416 4.30482 14.0535 3.66732 14.8327 3.66732C15.6118 3.66732 16.2493 4.30482 16.2493 5.08398V7.91732C16.2493 8.69649 15.6118 9.33398 14.8327 9.33398ZM19.0827 9.33398C18.3035 9.33398 17.666 8.69649 17.666 7.91732V5.08398C17.666 4.30482 18.3035 3.66732 19.0827 3.66732C19.8618 3.66732 20.4993 4.30482 20.4993 5.08398V7.91732C20.4993 8.69649 19.8618 9.33398 19.0827 9.33398Z" fill="#0063F7"/>
</svg>
