<!--
~ SPDX-FileCopyrightText: 2022-present Open Networking Foundation <info@opennetworking.org>
~
~ SPDX-License-Identifier: Apache-2.0
-->
<svg width="10" height="12" viewBox="0 0 10 12" fill="none" xmlns="http://www.w3.org/2000/svg">
<path d="M3.66683 8.66648H6.3335C6.70016 8.66648 7.00016 8.36648 7.00016 7.99982V4.66648H8.06016C8.6535 4.66648 8.9535 3.94648 8.5335 3.52648L5.4735 0.466484C5.2135 0.206484 4.7935 0.206484 4.5335 0.466484L1.4735 3.52648C1.0535 3.94648 1.34683 4.66648 1.94016 4.66648H3.00016V7.99982C3.00016 8.36648 3.30016 8.66648 3.66683 8.66648ZM1.00016 9.99982H9.00016C9.36683 9.99982 9.66683 10.2998 9.66683 10.6665C9.66683 11.0332 9.36683 11.3332 9.00016 11.3332H1.00016C0.633496 11.3332 0.333496 11.0332 0.333496 10.6665C0.333496 10.2998 0.633496 9.99982 1.00016 9.99982Z" fill="#0063F7"/>
</svg>
